:FULLY-SPECIFIED
:FORCE-ALL-JOINTS-BE-3DOF
:DEGREES
510
root 5.92724 16.1739 -5.21864 -172.725 85.0632 -177.664
lfemur -23.9829 -18.3055 -22.5092
ltibia 49.9625 0 0
lfoot -25.7489 -6.36119 0
ltoes 10.6771 0 0
rfemur -60.1874 7.81966 6.24893
rtibia 63.069 0 0
rfoot 9.18007 9.58672 0
rtoes -16.3717 0 0
lowerback 8.20721 -0.0161268 -1.06508
upperback 1.02778 0.0194099 2.29718
thorax -3.53987 0.0562244 2.9773
lowerneck -9.12096 -11.466 -3.28502
upperneck 11.2911 -15.2518 2.17708
head 5.28087 -7.43843 0.0494822
lclavicle -1.53284e-14 1.53129e-14 0
lhumerus -47.911 -35.3854 118.425
lradius 56.7565 0 0
lwrist 5.29869 0 0
lhand 8.78778 0.327942 0
lfingers 7.12502 0 0
lthumb 33.9774 27.1368 0
rclavicle -1.53284e-14 1.53129e-14 0
rhumerus -25.2321 49.5339 -83.829
rradius 109.61 0 0
rwrist 5.34624 0 0
rhand 11.3455 -10.8469 0
rfingers 7.12502 0 0
rthumb 36.4268 -757.332 0
511
root 5.98942 16.1236 -5.16354 -173.191 85.4458 -178.138
lfemur -23.873 -18.4488 -22.5602
ltibia 49.6446 0 0
lfoot -25.6523 -6.3443 0
ltoes 10.7942 0 0
rfemur -60.3539 7.97039 6.32581
rtibia 63.032 0 0
rfoot 9.2892 9.66617 0
rtoes -16.1623 0 0
lowerback 8.18046 -0.0215022 -1.09434
upperback 0.981188 0.00253985 2.26057
thorax -3.57236 0.0458901 2.95733
lowerneck -9.1822 -11.4374 -3.26862
upperneck 11.3292 -15.21 2.12397
head 5.29232 -7.41866 0.0307039
lclavicle -1.61406e-14 1.54477e-14 0
lhumerus -47.929 -35.5936 118.568
lradius 56.7617 0 0
lwrist 5.08252 0 0
lhand 9.10814 0.369428 0
lfingers 7.12502 0 0
lthumb 34.2849 27.1448 0
rclavicle -1.61406e-14 1.54477e-14 0
rhumerus -25.4654 49.9467 -83.789
rradius 109.503 0 0
rwrist 5.77554 0 0
rhand 11.8093 -10.6994 0
rfingers 7.12502 0 0
rthumb 36.8725 -757.143 0
512
root 6.05161 16.0732 -5.10844 -173.224 85.7849 -178.19
lfemur -23.7866 -18.5648 -22.6167
ltibia 49.3194 0 0
lfoot -25.5429 -6.30642 0
ltoes 10.9219 0 0
rfemur -60.4653 8.10362 6.40733
rtibia 63.0272 0 0
rfoot 9.43193 9.73897 0
rtoes -15.962 0 0
lowerback 8.14187 -0.0272812 -1.11956
upperback 0.931855 -0.0146684 2.22135
thorax -3.6011 0.0352983 2.9323
lowerneck -9.2424 -11.4018 -3.24683
upperneck 11.3541 -15.1591 2.0697
head 5.29968 -7.39447 0.0117713
lclavicle -1.6983e-14 1.55328e-14 0
lhumerus -47.9478 -35.7918 118.695
lradius 56.7691 0 0
lwrist 4.86505 0 0
lhand 9.40035 0.40228 0
lfingers 7.12502 0 0
lthumb 34.5656 27.1489 0
rclavicle -1.6983e-14 1.55328e-14 0
rhumerus -25.7418 50.244 -83.7542
rradius 109.301 0 0
rwrist 6.21895 0 0
rhand 12.1798 -10.5874 0
rfingers 7.12502 0 0
rthumb 37.2285 -756.998 0
513
root 6.11379 16.0228 -5.05333 -172.907 86.03 -177.9
lfemur -23.7321 -18.6327 -22.6763
ltibia 49.038 0 0
lfoot -25.4342 -6.23298 0
ltoes 11.0225 0 0
rfemur -60.5068 8.2096 6.47038
rtibia 63.0129 0 0
rfoot 9.60559 9.80611 0
rtoes -15.8114 0 0
lowerback 8.10164 -0.0314674 -1.1355
upperback 0.888036 -0.02771 2.18916
thorax -3.62355 0.0270335 2.90884
lowerneck -9.29439 -11.3695 -3.22732
upperneck 11.3709 -15.113 2.02112
head 5.30517 -7.37247 -0.00528366
lclavicle -1.78851e-14 1.55674e-14 0
lhumerus -47.9597 -35.9627 118.799
lradius 56.7849 0 0
lwrist 4.67553 0 0
lhand 9.61722 0.414031 0
lfingers 7.12502 0 0
lthumb 34.7741 27.1418 0
rclavicle -1.78851e-14 1.55674e-14 0
rhumerus -25.9737 50.3711 -83.7088
rradius 109.075 0 0
rwrist 6.56536 0 0
rhand 12.4061 -10.5258 0
rfingers 7.12502 0 0
rthumb 37.4461 -756.918 0
514
root 6.17598 15.9725 -4.99823 -172.322 86.1308 -177.346
lfemur -23.7177 -18.6317 -22.7366
ltibia 48.8517 0 0
lfoot -25.3398 -6.1094 0
ltoes 11.058 0 0
rfemur -60.4639 8.27859 6.49183
rtibia 62.9476 0 0
rfoot 9.80749 9.86856 0
rtoes -15.7511 0 0
lowerback 8.07 -0.0320643 -1.13696
upperback 0.857989 -0.0320802 2.17362
thorax -3.63715 0.0236802 2.89357
lowerneck -9.33102 -11.3508 -3.21774
upperneck 11.3847 -15.0857 1.98506
head 5.31099 -7.35929 -0.0184291
lclavicle -1.88765e-14 1.5551e-14 0
lhumerus -47.9567 -36.0889 118.872
lradius 56.815 0 0
lwrist 4.5432 0 0
lhand 9.71156 0.392209 0
lfingers 7.12502 0 0
lthumb 34.8651 27.1162 0
rclavicle -1.88765e-14 1.5551e-14 0
rhumerus -26.0735 50.273 -83.637
rradius 108.896 0 0
rwrist 6.70363 0 0
rhand 12.4377 -10.5296 0
rfingers 7.12502 0 0
rthumb 37.4768 -756.924 0
515
root 6.23816 15.9221 -4.94313 -171.554 86.037 -176.606
lfemur -23.7517 -18.5409 -22.7951
ltibia 48.8115 0 0
lfoot -25.2734 -5.9211 0
ltoes 10.9906 0 0
rfemur -60.322 8.30082 6.44856
rtibia 62.7896 0 0
rfoot 10.0349 9.9273 0
rtoes -15.8217 0 0
lowerback 8.05719 -0.0270756 -1.11872
upperback 0.849972 -0.0232742 2.18436
thorax -3.63935 0.027823 2.89309
lowerneck -9.34513 -11.356 -3.22577
upperneck 11.4004 -15.0912 1.96839
head 5.31937 -7.36152 -0.0256332
lclavicle -1.99868e-14 1.54828e-14 0
lhumerus -47.9309 -36.1533 118.905
lradius 56.8653 0 0
lwrist 4.49729 0 0
lhand 9.63617 0.324347 0
lfingers 7.12502 0 0
lthumb 34.7934 27.0648 0
rclavicle -1.99868e-14 1.54828e-14 0
rhumerus -25.9538 49.8949 -83.5233
rradius 108.838 0 0
rwrist 6.52263 0 0
rhand 12.2238 -10.6138 0
rfingers 7.12502 0 0
rthumb 37.2717 -757.036 0
516
root 6.30035 15.8717 -4.88802 -170.683 85.6981 -175.759
lfemur -23.8424 -18.3397 -22.8494
ltibia 48.9688 0 0
lfoot -25.2485 -5.65351 0
ltoes 10.7824 0 0
rfemur -60.0664 8.26656 6.31746
rtibia 62.4973 0 0
rfoot 10.2852 9.9833 0
rtoes -16.0638 0 0
lowerback 8.07342 -0.014505 -1.07554
upperback 0.872246 0.00321278 2.23103
thorax -3.62759 0.0420464 2.91403
lowerneck -9.32955 -11.3954 -3.25906
upperneck 11.4231 -15.1433 1.97792
head 5.3325 -7.3858 -0.0248641
lclavicle -2.12456e-14 1.53622e-14 0
lhumerus -47.8745 -36.1385 118.893
lradius 56.942 0 0
lwrist 4.56705 0 0
lhand 9.34388 0.197975 0
lfingers 7.12502 0 0
lthumb 34.5136 26.9801 0
rclavicle -2.12456e-14 1.53622e-14 0
rhumerus -25.5269 49.1819 -83.3519
rradius 108.971 0 0
rwrist 5.91123 0 0
rhand 11.7135 -10.7934 0
rfingers 7.12502 0 0
rthumb 36.7821 -757.274 0
517
root 6.36253 15.8213 -4.83292 -169.794 85.0638 -174.885
lfemur -23.9981 -18.0072 -22.897
ltibia 49.3745 0 0
lfoot -25.2787 -5.29204 0
ltoes 10.3956 0 0
rfemur -59.6825 8.16605 6.07541
rtibia 62.0291 0 0
rfoot 10.5557 10.0375 0
rtoes -16.518 0 0
lowerback 8.12892 0.00764388 -1.00221
upperback 0.933067 0.0518855 2.32325
thorax -3.59932 0.0689351 2.963
lowerneck -9.27714 -11.4794 -3.32527
upperneck 11.4579 -15.256 2.0205
head 5.3526 -7.43872 -0.0140899
lclavicle -2.26823e-14 1.51886e-14 0
lhumerus -47.7795 -36.0272 118.827
lradius 57.0509 0 0
lwrist 4.7817 0 0
lhand 8.7875 0.000623848 0
lfingers 7.12502 0 0
lthumb 33.9804 26.8551 0
rclavicle -2.26823e-14 1.51886e-14 0
rhumerus -24.7053 48.0792 -83.107
rradius 109.368 0 0
rwrist 4.7583 0 0
rhand 10.8563 -11.0835 0
rfingers 7.12502 0 0
rthumb 35.9593 -757.658 0
518
root 6.42472 15.771 -4.77782 -168.968 84.0838 -174.06
lfemur -24.2271 -17.5226 -22.9354
ltibia 50.0801 0 0
lfoot -25.3776 -4.82212 0
ltoes 9.79222 0 0
rfemur -59.1557 7.98954 5.69928
rtibia 61.3432 0 0
rfoot 10.8437 10.091 0
rtoes -17.225 0 0
lowerback 8.23391 0.0413675 -0.893506
upperback 1.04069 0.127249 2.47066
thorax -3.552 0.111074 3.04661
lowerneck -9.18073 -11.6181 -3.43207
upperneck 11.5097 -15.4432 2.10299
head 5.38188 -7.52691 0.00872121
lclavicle -2.43267e-14 1.49613e-14 0
lhumerus -47.6381 -35.8023 118.699
lradius 57.1981 0 0
lwrist 5.1705 0 0
lhand 7.91983 -0.280176 0
lfingers 7.12502 0 0
lthumb 33.1485 26.6822 0
rclavicle -2.43267e-14 1.49613e-14 0
rhumerus -23.4015 46.5319 -82.773
rradius 110.101 0 0
rwrist 2.95272 0 0
rhand 9.60132 -11.499 0
rfingers 7.12502 0 0
rthumb 34.7546 -758.209 0
519
root 6.4869 15.7206 -4.72271 -168.29 82.7076 -173.365
lfemur -24.5377 -16.8651 -22.9623
ltibia 51.1365 0 0
lfoot -25.5589 -4.22918 0
ltoes 8.93444 0 0
rfemur -58.4714 7.72728 5.16595
rtibia 60.3982 0 0
rfoot 11.1465 10.1447 0
rtoes -18.2253 0 0
lowerback 8.39862 0.0886621 -0.744213
upperback 1.20339 0.233807 2.68288
thorax -3.48306 0.171046 3.17149
lowerneck -9.03316 -11.822 -3.58712
upperneck 11.5838 -15.7189 2.2322
head 5.42254 -7.65698 0.0456012
lclavicle -2.62082e-14 1.46797e-14 0
lhumerus -47.4424 -35.4464 118.501
lradius 57.3896 0 0
lwrist 5.76267 0 0
lhand 6.69369 -0.656894 0
lfingers 7.12502 0 0
lthumb 31.9727 26.4542 0
rclavicle -2.62082e-14 1.46797e-14 0
rhumerus -21.5279 44.4852 -82.3341
rradius 111.242 0 0
rwrist 0.383344 0 0
rhand 7.89786 -12.055 0
rfingers 7.12502 0 0
rthumb 33.1193 -758.947 0
520
root 6.54909 15.6702 -4.66761 -167.841 80.8849 -172.877
lfemur -24.9383 -16.014 -22.9751
ltibia 52.595 0 0
lfoot -25.8361 -3.49862 0
ltoes 7.7844 0 0
rfemur -57.615 7.36953 4.45231
rtibia 59.1523 0 0
rfoot 11.4614 10.1995 0
rtoes -19.5596 0 0
lowerback 8.63328 0.151524 -0.549107
upperback 1.4294 0.376066 2.96955
thorax -3.38996 0.251438 3.34424
lowerneck -8.82728 -12.1013 -3.79808
upperneck 11.685 -16.0969 2.415
head 5.47681 -7.83554 0.0985818
lclavicle -2.83565e-14 1.4343e-14 0
lhumerus -47.1844 -34.9423 118.228
lradius 57.6313 0 0
lwrist 6.58747 0 0
lhand 5.0619 -1.142 0
lfingers 7.12502 0 0
lthumb 30.4076 26.1638 0
rclavicle -2.83565e-14 1.4343e-14 0
rhumerus -18.9971 41.8843 -81.7747
rradius 112.861 0 0
rwrist -3.06094 0 0
rhand 5.69519 -12.7665 0
rfingers 7.12502 0 0
rthumb 31.0047 -759.892 0
521
root 6.61127 15.6199 -4.61251 -167.705 78.5654 -172.676
lfemur -25.437 -14.9484 -22.9713
ltibia 54.5068 0 0
lfoot -26.2227 -2.61588 0
ltoes 6.30422 0 0
rfemur -56.5719 6.90653 3.53523
rtibia 57.5639 0 0
rfoot 11.7858 10.2564 0
rtoes -21.2685 0 0
lowerback 8.9481 0.23195 -0.302967
upperback 1.727 0.55853 3.34031
thorax -3.27014 0.354833 3.57148
lowerneck -8.55593 -12.4664 -4.07261
upperneck 11.8185 -16.5913 2.65821
head 5.54689 -8.06921 0.169695
lclavicle -3.0801e-14 1.39508e-14 0
lhumerus -46.8564 -34.2727 117.869
lradius 57.9293 0 0
lwrist 7.67411 0 0
lhand 2.97726 -1.74796 0
lfingers 7.12502 0 0
lthumb 28.408 25.8036 0
rclavicle -3.0801e-14 1.39508e-14 0
rhumerus -15.7213 38.6742 -81.079
rradius 115.033 0 0
rwrist -7.49128 0 0
rhand 2.94256 -13.6484 0
rfingers 7.12502 0 0
rthumb 28.3621 -761.065 0
